<svg width="1238" height="101" viewBox="0 0 1238 101" fill="none" xmlns="http://www.w3.org/2000/svg">
<g filter="url(#filter0_b)">
<mask id="path-1-inside-1" fill="white">
<path fill-rule="evenodd" clip-rule="evenodd" d="M702.146 0.00248718L605.464 0.00192261L605.465 0.00321197C357.408 0.00447845 0 0.00267792 0 0.00267792L41.7042 80.5512C47.8896 92.498 60.2202 99.9991 73.6734 99.9991L642.679 99.9985L1163.89 100.002C1177.35 100.002 1189.68 92.5009 1195.86 80.554L1237.57 0.00559235L745.487 0.00192261C732.134 0.0021286 717.623 0.00231934 702.146 0.00248718Z"/>
</mask>
<path fill-rule="evenodd" clip-rule="evenodd" d="M702.146 0.00248718L605.464 0.00192261L605.465 0.00321197C357.408 0.00447845 0 0.00267792 0 0.00267792L41.7042 80.5512C47.8896 92.498 60.2202 99.9991 73.6734 99.9991L642.679 99.9985L1163.89 100.002C1177.35 100.002 1189.68 92.5009 1195.86 80.554L1237.57 0.00559235L745.487 0.00192261C732.134 0.0021286 717.623 0.00231934 702.146 0.00248718Z" fill="black" fill-opacity="0.2"/>
<path d="M605.464 0.00192261L604.997 0.178999L604.74 -0.498082L605.464 -0.498077L605.464 0.00192261ZM702.146 0.00248718L702.146 0.502487L702.146 0.502487L702.146 0.00248718ZM605.465 0.00321197L605.932 -0.173865L606.189 0.503208L605.465 0.503212L605.465 0.00321197ZM0 0.00267792L-0.444016 0.232568L-0.82192 -0.497326L2.51888e-06 -0.497322L0 0.00267792ZM41.7042 80.5512L42.1482 80.3213L42.1482 80.3213L41.7042 80.5512ZM73.6734 99.9991L73.6734 99.4991L73.6734 99.4991L73.6734 99.9991ZM642.679 99.9985L642.679 99.4985L642.679 99.4985L642.679 99.9985ZM1163.89 100.002L1163.89 100.502L1163.89 100.502L1163.89 100.002ZM1195.86 80.554L1196.31 80.7839L1196.31 80.7839L1195.86 80.554ZM1237.57 0.00559235L1237.57 -0.494408L1238.39 -0.494402L1238.01 0.235483L1237.57 0.00559235ZM745.487 0.00192261L745.487 -0.498077L745.487 -0.498077L745.487 0.00192261ZM605.464 -0.498077L702.146 -0.497513L702.146 0.502487L605.464 0.501923L605.464 -0.498077ZM604.997 0.180289L604.997 0.178999L605.932 -0.175154L605.932 -0.173865L604.997 0.180289ZM605.465 0.503212C481.436 0.503845 330.07 0.503712 209.711 0.50342C149.532 0.503274 97.1038 0.503088 59.7209 0.502939C41.0294 0.502865 26.0992 0.5028 15.8419 0.502753C10.7132 0.502729 6.75271 0.502711 4.07442 0.502698C2.73527 0.502691 1.71667 0.502686 1.03285 0.502683C0.690938 0.502681 0.432726 0.50268 0.25999 0.502679C0.173622 0.502679 0.108625 0.502678 0.0652183 0.502678C0.0435151 0.502678 0.0272099 0.502678 0.0163305 0.502678C0.0108908 0.502678 0.00680755 0.502678 0.00408422 0.502678C0.00136089 0.502678 -2.51888e-06 0.502678 0 0.00267792C2.51888e-06 -0.497322 0.00136592 -0.497322 0.00408925 -0.497322C0.00681258 -0.497322 0.0108958 -0.497322 0.0163355 -0.497322C0.0272149 -0.497322 0.0435201 -0.497322 0.0652233 -0.497322C0.108629 -0.497322 0.173629 -0.497321 0.259995 -0.497321C0.43273 -0.49732 0.690943 -0.497319 1.03285 -0.497317C1.71667 -0.497314 2.73528 -0.497309 4.07442 -0.497302C6.75272 -0.497289 10.7132 -0.497271 15.8419 -0.497247C26.0992 -0.4972 41.0294 -0.497135 59.7209 -0.497061C97.1038 -0.496912 149.532 -0.496726 209.711 -0.49658C330.07 -0.496288 481.436 -0.496155 605.465 -0.496788L605.465 0.503212ZM0.444016 -0.227212L42.1482 80.3213L41.2601 80.7811L-0.444016 0.232568L0.444016 -0.227212ZM42.1482 80.3213C48.2477 92.1022 60.4071 99.4991 73.6734 99.4991L73.6734 100.499C60.0334 100.499 47.5315 92.8938 41.2601 80.7811L42.1482 80.3213ZM73.6734 99.4991L642.679 99.4985L642.679 100.499L73.6734 100.499L73.6734 99.4991ZM1163.89 100.502L642.679 100.499L642.679 99.4985L1163.89 99.502L1163.89 100.502ZM1196.31 80.7839C1190.03 92.8967 1177.53 100.502 1163.89 100.502L1163.89 99.502C1177.16 99.502 1189.32 92.1051 1195.42 80.3241L1196.31 80.7839ZM1238.01 0.235483L1196.31 80.7839L1195.42 80.3241L1237.12 -0.224298L1238.01 0.235483ZM745.487 -0.498077L1237.57 -0.494408L1237.57 0.505592L745.487 0.501923L745.487 -0.498077ZM745.487 0.501923C732.134 0.502129 717.623 0.502319 702.146 0.502487L702.146 -0.497513C717.623 -0.497681 732.134 -0.497871 745.487 -0.498077L745.487 0.501923Z" fill="white" mask="url(#path-1-inside-1)"/>
</g>
<defs>
<filter id="filter0_b" x="-10" y="-9.99805" width="1257.57" height="120" filterUnits="userSpaceOnUse" color-interpolation-filters="sRGB">
<feFlood flood-opacity="0" result="BackgroundImageFix"/>
<feGaussianBlur in="BackgroundImage" stdDeviation="5"/>
<feComposite in2="SourceAlpha" operator="in" result="effect1_backgroundBlur"/>
<feBlend mode="normal" in="SourceGraphic" in2="effect1_backgroundBlur" result="shape"/>
</filter>
</defs>
</svg>
